# xmcd
#
# Track frame offsets:
#	150
#	14671
#	30872
#	48143
#	67462
#	81595
#	94262
#	113581
#	127710
#	145264
#
# Disc length: 2117 seconds
#
# Revision: 0
# Processed by: cddbd v1.5PL3 Copyright (c) Steve Scherf et al.
# Submitted via: audiograbber 1.83.01
#
DISCID=8208430a
DTITLE=Diddley Squat - Caught Ya' With Your Pants Down
DYEAR=2003
DGENRE=Blues
TTITLE0=Ain't in a Hurry
TTITLE1=Millennium
TTITLE2=Caught Ya' With Your Pants Down
TTITLE3=The Way You Do
TTITLE4=Bottle of Blues
TTITLE5=Cheat'n Recipe
TTITLE6=Two of Us
TTITLE7=She's Nocturnal
TTITLE8=Down Hearted Blues
TTITLE9=Oh Well
EXTD=
EXTT0=Jim Cobb
EXTT1=Jim Cobb
EXTT2=Rodney Beal
EXTT3=Jim Cobb
EXTT4=Rodney Beal
EXTT5=Jim Cobb
EXTT6=Jim Cobb
EXTT7=Jim Cobb
EXTT8=Rodney Beal
EXTT9=Jim Cobb
PLAYORDER=
